<svg width="18" height="18" viewBox="0 0 18 18" fill="none" xmlns="http://www.w3.org/2000/svg">
<g clip-path="url(#clip0_94_46)">
<path d="M0 16.6154V1.38461C0 1.01739 0.145878 0.665211 0.405544 0.405544C0.665211 0.145878 1.01739 0 1.38461 0H16.6154C16.9826 0 17.3348 0.145878 17.5945 0.405544C17.8541 0.665211 18 1.01739 18 1.38461V16.6154C18 16.9826 17.8541 17.3348 17.5945 17.5945C17.3348 17.8541 16.9826 18 16.6154 18H12.4615V11.4369H13.4446C13.6687 11.4369 13.8834 11.3479 14.0418 11.1895C14.2002 11.0311 14.2892 10.8163 14.2892 10.5923V9.52615C14.2892 9.41523 14.2674 9.30541 14.2249 9.20294C14.1825 9.10047 14.1202 9.00735 14.0418 8.92893C13.9634 8.8505 13.8703 8.78828 13.7678 8.74583C13.6653 8.70339 13.5555 8.68154 13.4446 8.68154H12.5169V7.38C12.5169 6.21692 13.0431 6.21692 13.5692 6.21692H14.2476C14.3591 6.22151 14.4702 6.20157 14.5731 6.15851C14.6759 6.11544 14.7681 6.0503 14.8431 5.96769C14.9235 5.89109 14.9872 5.79862 15.0301 5.69614C15.0731 5.59365 15.0942 5.48339 15.0924 5.37231V4.34769C15.096 4.23494 15.0774 4.12257 15.0377 4.017C14.9979 3.91143 14.9377 3.81473 14.8605 3.73243C14.7834 3.65013 14.6908 3.58385 14.588 3.53736C14.4852 3.49088 14.3743 3.46512 14.2615 3.46154H12.6692C12.2046 3.44407 11.7418 3.52767 11.3126 3.70656C10.8835 3.88544 10.4983 4.15535 10.1836 4.49765C9.86896 4.83994 9.63237 5.24646 9.49017 5.68912C9.34797 6.13179 9.30356 6.60003 9.36 7.06154V8.68154H8.47385C8.36177 8.6797 8.25045 8.7002 8.14638 8.74182C8.0423 8.78343 7.94754 8.84535 7.86765 8.92397C7.78774 9.00258 7.72429 9.09631 7.68097 9.1997C7.63767 9.30309 7.61538 9.41406 7.61539 9.52615V10.5923C7.61538 10.7044 7.63767 10.8154 7.68097 10.9188C7.72429 11.0221 7.78774 11.1159 7.86765 11.1945C7.94754 11.2731 8.0423 11.335 8.14638 11.3767C8.25045 11.4183 8.36177 11.4388 8.47385 11.4369H9.36V18H1.38461C1.01739 18 0.665211 17.8541 0.405544 17.5945C0.145878 17.3348 0 16.9826 0 16.6154Z" fill="white"/>
</g>
<defs>
<clipPath id="clip0_94_46">
<rect width="18" height="18" fill="white"/>
</clipPath>
</defs>
</svg>
