<svg width="18" height="18" viewBox="0 0 18 18" fill="none" xmlns="http://www.w3.org/2000/svg">
<path fill-rule="evenodd" clip-rule="evenodd" d="M4.35942 1.01123C2.51054 1.01123 1.01172 2.51005 1.01172 4.35895V13.2862C1.01172 15.135 2.51054 16.6339 4.35942 16.6339H13.2867C15.1355 16.6339 16.6343 15.135 16.6343 13.2862V4.35895C16.6343 2.51005 15.1355 1.01123 13.2867 1.01123H4.35942ZM14.2503 4.36379C14.2503 4.89635 13.8186 5.32808 13.286 5.32808C12.7535 5.32808 12.3217 4.89635 12.3217 4.36379C12.3217 3.83123 12.7535 3.39951 13.286 3.39951C13.8186 3.39951 14.2503 3.83123 14.2503 4.36379ZM8.82321 6.14812C7.3462 6.14812 6.14884 7.34548 6.14884 8.82248C6.14884 10.2995 7.3462 11.4968 8.82321 11.4968C10.3002 11.4968 11.4976 10.2995 11.4976 8.82248C11.4976 7.34548 10.3002 6.14812 8.82321 6.14812ZM4.86313 8.82248C4.86313 6.63539 6.63612 4.86241 8.82321 4.86241C11.0103 4.86241 12.7833 6.63539 12.7833 8.82248C12.7833 11.0096 11.0103 12.7826 8.82321 12.7826C6.63612 12.7826 4.86313 11.0096 4.86313 8.82248Z" fill="white"/>
</svg>
