<svg width="18" height="18" viewBox="0 0 18 18" fill="none" xmlns="http://www.w3.org/2000/svg">
<g clip-path="url(#clip0_94_42)">
<path fill-rule="evenodd" clip-rule="evenodd" d="M3.74678 3.0363C4.08 2.69281 4.26472 2.23203 4.26099 1.75347C4.24364 1.28925 4.04962 0.849189 3.7186 0.52326C3.38758 0.19733 2.94456 0.0101543 2.48012 0C2.01432 0.00996821 1.56974 0.196681 1.2365 0.522288C0.903262 0.847895 0.706301 1.28803 0.685547 1.75347C0.692251 2.2312 0.882228 2.68808 1.21622 3.02972C1.5502 3.37136 2.00267 3.57162 2.48012 3.58915C2.95856 3.57836 3.41355 3.37978 3.74678 3.0363ZM2.14662 5.95414C1.39255 5.93706 0.877333 5.9254 0.877333 6.84951V17.1238C0.877333 18.0288 1.36863 18.01 2.07661 17.9832C2.20458 17.9783 2.33962 17.9731 2.48012 17.9731C2.62088 17.9731 2.75583 17.9783 2.88346 17.9832C3.58805 18.01 4.06921 18.0284 4.06921 17.1238V6.84951C4.06921 5.92559 3.56472 5.93706 2.81352 5.95413C2.7071 5.95655 2.59572 5.95908 2.48012 5.95908C2.3647 5.95908 2.25327 5.95656 2.14662 5.95414ZM7.39805 5.9728C7.05558 6.04129 6.8364 6.26048 6.8364 6.84953V17.1238C6.8364 18.0279 7.30721 18.0102 8.01643 17.9832C8.14538 17.9783 8.28219 17.9731 8.42548 17.9731C8.56853 17.9731 8.70543 17.9783 8.83471 17.9832C9.54734 18.0102 10.0283 18.0283 10.0283 17.1238V11.6442C10.001 11.3642 10.0335 11.0816 10.1237 10.8151C10.2139 10.5486 10.3596 10.3043 10.5513 10.0984C10.743 9.89247 10.9762 9.7296 11.2356 9.62059C11.4949 9.51159 11.7745 9.4589 12.0557 9.46605C12.3383 9.44929 12.6211 9.49355 12.8851 9.59579C13.149 9.69803 13.3878 9.85588 13.5854 10.0586C13.7829 10.2613 13.9345 10.5042 14.0299 10.7707C14.1252 11.0372 14.1621 11.3211 14.138 11.6031V17.0826C14.138 17.9869 14.6088 17.969 15.318 17.9421C15.447 17.9373 15.5838 17.932 15.727 17.932C15.8704 17.932 16.0072 17.9373 16.1361 17.9421C16.8453 17.969 17.3162 17.9869 17.3162 17.0826V10.0688C17.3423 9.49293 17.2469 8.91801 17.0361 8.3814C16.8255 7.84479 16.5044 7.3585 16.0936 6.95412C15.6827 6.54974 15.1914 6.23631 14.6515 6.0342C14.1117 5.8321 13.5353 5.74583 12.9599 5.78101C12.3739 5.72773 11.7841 5.8257 11.2468 6.06555C10.7096 6.3054 10.2428 6.67911 9.89128 7.15091C9.90498 6.64404 9.74059 5.9728 9.32962 5.9728C9.21179 5.9728 9.03086 5.96717 8.82466 5.96074C8.31173 5.94477 7.64233 5.92394 7.39805 5.9728Z" fill="white"/>
</g>
<defs>
<clipPath id="clip0_94_42">
<rect width="18" height="18" fill="white"/>
</clipPath>
</defs>
</svg>
