<svg width="18" height="18" viewBox="0 0 18 18" fill="none" xmlns="http://www.w3.org/2000/svg">
<path fill-rule="evenodd" clip-rule="evenodd" d="M10.8958 1.49549C12.5699 1.06419 14.5904 1.65865 15.82 2.9682H17.2002C17.4215 2.9682 17.6271 3.08193 17.7447 3.2693C17.8624 3.45666 17.8754 3.69132 17.7792 3.89055L16.422 6.70175C16.8071 9.97738 15.5257 13.1091 12.9483 14.9606C10.3116 16.8544 6.43279 17.3315 1.83357 15.4471C1.59151 15.3559 1.38244 15.1939 1.23385 14.9819C1.0823 14.7656 1.001 14.508 1.001 14.2439C1.001 13.9798 1.0823 13.7222 1.23385 13.506C1.3854 13.2898 1.59986 13.1255 1.84806 13.0353C1.86485 13.0293 1.8819 13.0239 1.89914 13.0191C2.60648 12.8274 3.28275 12.5404 3.9099 12.1675C2.66729 11.4209 1.65234 10.3357 0.990744 9.02889C0.164729 7.39726 -0.0566412 5.52631 0.364947 3.74778C0.391754 3.52499 0.476465 3.31271 0.611115 3.13232C0.758111 2.93538 0.958469 2.7847 1.18846 2.69811C1.41844 2.61153 1.66844 2.59267 1.9088 2.64378C2.14895 2.69483 2.36946 2.81357 2.54425 2.98596C4.36027 4.77094 5.94922 5.50965 7.04937 5.81167C7.47588 5.92878 7.83297 5.98135 8.10614 6.00263C8.02151 4.87074 8.21423 3.92754 8.64085 3.18162C9.16074 2.27259 9.98679 1.72967 10.8958 1.49549Z" fill="white"/>
</svg>
